<?xml version="1.0" encoding="UTF-8"?><svg id="Layer_1" xmlns="http://www.w3.org/2000/svg" viewBox="0 0 632.3 150"><path d="M150.75,99.59l-16.87-9.74c-1.51-.87-2.45-2.49-2.45-4.24v-19.48c0-4.04-2.18-7.81-5.68-9.83l-16.87-9.74c-1.51-.87-2.44-2.49-2.44-4.23v-19.48c0-4.04-2.18-7.81-5.68-9.83L78.21,0l-22.55,13.02c-3.5,2.02-5.68,5.79-5.68,9.83v19.48c0,1.74-.94,3.36-2.44,4.23l-16.87,9.74c-3.5,2.02-5.68,5.79-5.68,9.83v19.48c0,1.74-.94,3.36-2.44,4.24l-16.87,9.74c-3.5,2.02-5.68,5.79-5.68,9.83v26.04s22.55,13.02,22.55,13.02c3.5,2.02,7.85,2.02,11.35,0l16.87-9.74c1.51-.87,3.38-.87,4.89,0l16.87,9.74c1.75,1.01,3.71,1.52,5.68,1.52s3.93-.51,5.68-1.52l16.87-9.74c1.51-.87,3.38-.87,4.89,0l16.87,9.74c3.5,2.02,7.85,2.02,11.35,0l22.55-13.02v-26.03c0-4.04-2.18-7.81-5.68-9.83ZM99.97,22.85v19.48c0,4.04,2.18,7.81,5.68,9.83l16.87,9.74c1.51.87,2.44,2.49,2.44,4.24v19.48c0,4.04,2.18,7.81,5.68,9.83l16.87,9.74c1.51.87,2.44,2.49,2.44,4.23v18.58l-68.52-39.56V9.33s16.09,9.29,16.09,9.29c1.51.87,2.44,2.49,2.44,4.23ZM8.91,105.19l16.87-9.74c3.5-2.02,5.68-5.79,5.68-9.83v-19.48c0-1.74.94-3.36,2.45-4.24l16.87-9.74c3.5-2.02,5.68-5.79,5.68-9.83v-19.48c0-1.74.94-3.36,2.44-4.23l16.08-9.29v79.11S6.47,128,6.47,128v-18.57c0-1.74.93-3.36,2.44-4.23ZM130.64,142.89c-1.51.87-3.38.87-4.89,0l-16.87-9.74c-3.5-2.02-7.85-2.02-11.35,0l-16.87,9.74c-1.51.87-3.38.87-4.89,0l-16.87-9.74c-3.5-2.02-7.85-2.02-11.35,0l-16.87,9.74c-1.51.87-3.38.87-4.89,0l-16.09-9.29,68.51-39.56,68.51,39.56-16.08,9.29Z" fill="#fff" stroke-width="0"/><polygon points="197.77 121.51 214.53 121.51 214.53 84.54 250.09 84.54 250.09 69.3 214.53 69.3 214.53 47.83 252.63 47.83 252.63 32.59 197.77 32.59 197.77 121.51" fill="#fff" stroke-width="0"/><path d="M421.67,60.85c-3.73-2.24-8-3.37-12.83-3.37-9.65,0-16.13,3.47-19.44,10.42h-1.27v-9.4h-15.75v63.01h16.01v-32.52c0-5.84,1.35-10.39,4.07-13.66,2.71-3.26,6.52-4.89,11.43-4.89,4.4,0,7.75,1.19,10.04,3.56,2.29,2.37,3.43,5.93,3.43,10.67v36.84h16.01v-37.6c0-5.16-1.02-9.74-3.05-13.72-2.03-3.98-4.91-7.09-8.64-9.34Z" fill="#fff" stroke-width="0"/><path d="M468.55,38.94h-16.01v19.56h-15.75v12.96h15.75v35.82c0,4.32,1.27,7.77,3.81,10.35,2.54,2.58,5.93,3.87,10.16,3.87h17.78v-12.96h-12.2c-2.37,0-3.56-1.27-3.56-3.81v-33.28h17.28v-12.96h-17.28v-19.56Z" fill="#fff" stroke-width="0"/><path d="M503.78,29.29c-3.22,0-5.91,1.02-8.07,3.05-4.32,3.79-4.32,11.96,0,15.75,4.07,4.07,12.06,4.07,16.13,0,4.32-3.79,4.32-11.96,0-15.75-2.16-2.03-4.85-3.05-8.07-3.05Z" fill="#fff" stroke-width="0"/><rect x="495.78" y="58.5" width="16.01" height="63.01" fill="#fff" stroke-width="0"/><path d="M274.34,67.4h1.27c2.41-6.73,7.75-9.15,15.75-9.15h6.61v13.46h-9.4c-8.13,0-13.97,4.32-13.97,13.21v36.58h-16.01v-63.01h15.75v8.89Z" fill="#fff" stroke-width="0"/><path d="M615.03,58.5l-16.64,45.48h-1.27l-16.64-45.48h-28.25v-11.02c0-2.54,1.18-3.81,3.56-3.81h10.92v-12.96h-16.51c-4.24,0-7.62,1.29-10.16,3.87-2.54,2.58-3.81,6.03-3.81,10.35v13.56h-16v12.96h16v50.05h16.01v-50.05h16.03s21.13,54.07,21.13,54.07l-2.75,6.6c-.46,1.1-1.41,1.82-3.22,1.82h-14v12.96h18.62c6.54,0,10.98-3.24,12.9-8.15l31.37-80.26h-17.28Z" fill="#fff" stroke-width="0"/><path d="M332.52,123.29c19.4,0,33.03-13.53,33.03-33.28s-13.41-33.28-33.03-33.28-33.03,13.63-33.03,33.28,13.63,33.28,33.03,33.28ZM315.49,90.01c0-12.8,7.62-19.31,17.02-19.31,9.4,0,17.02,6.51,17.02,19.31s-7.62,19.31-17.02,19.31c-9.4,0-17.02-6.51-17.02-19.31Z" fill="#fff" stroke-width="0"/></svg>